<?xml version="1.0" encoding="utf-8"?>
<!-- Generator: Adobe Illustrator 20.0.0, SVG Export Plug-In . SVG Version: 6.00 Build 0)  -->
<svg version="1.1" id="Layer_1" xmlns="http://www.w3.org/2000/svg" xmlns:xlink="http://www.w3.org/1999/xlink" x="0px" y="0px"
	 viewBox="0 0 18 18" style="enable-background:new 0 0 18 18;" xml:space="preserve">
<path d="M15.4,0c1.3,2.1,2,4.5,2,6.9C17.4,8,17.3,9,17,10c-0.2,0.7-0.8,1.2-1.5,1.2c-0.4,0-0.8-0.2-1.1-0.5v0.1
	c0,0.8-0.7,1.5-1.5,1.5c-0.8,0-1.5-0.7-1.5-1.5v0.7c0,0.8-0.7,1.5-1.5,1.5s-1.5-0.7-1.5-1.5v4.9c0,0.8-0.7,1.5-1.5,1.5
	c-0.8,0-1.5-0.7-1.5-1.5V8c0-0.4-0.3-0.7-0.7-0.7c-0.1,0-0.1,0-0.2,0L2.3,8.1C2.1,8.2,1.9,8.3,1.6,8.3c-0.8,0-1.5-0.7-1.5-1.5
	c0-0.6,0.4-1.2,0.9-1.4C3.5,4.1,5.4,2.6,6.8,0L15.4,0L15.4,0z"/>
</svg>
