<?xml version="1.0" encoding="utf-8"?>
<!-- Generator: Adobe Illustrator 20.0.0, SVG Export Plug-In . SVG Version: 6.00 Build 0)  -->
<svg version="1.1" id="Layer_1" xmlns="http://www.w3.org/2000/svg" xmlns:xlink="http://www.w3.org/1999/xlink" x="0px" y="0px"
	 viewBox="0 0 18 18" style="enable-background:new 0 0 18 18;" xml:space="preserve">
<g>
	<g>
		<g>
			<g>
				<path d="M12.7,18l-5.1-3.4H3.2c-1.4,0-2.5-1.2-2.5-2.6V2.8c0-1.4,1.1-2.6,2.5-2.6h11.9c1.4,0,2.5,1.2,2.5,2.6v9.1
					c0,1.4-1.1,2.6-2.5,2.6h-2.5L12.7,18L12.7,18z M2.9,1.3c-0.6,0-1.1,0.5-1.1,1.1v9.7c0,0.6,0.5,1.1,1.1,1.1h5.1l3.7,2.5l-0.1-2.5
					h4c0.6,0,1.1-0.5,1.1-1.1V2.5c0-0.6-0.5-1.1-1.1-1.1L2.9,1.3L2.9,1.3z"/>
			</g>
			<path d="M9.2,7.1l4-2.5c0,0-0.1,0-0.1,0H5.3c0,0-0.1,0-0.1,0L9.2,7.1z"/>
			<path d="M9.5,7.8C9.5,7.8,9.4,7.8,9.5,7.8L9.5,7.8c-0.1,0-0.1,0-0.1,0.1l0,0c0,0-0.1,0-0.1,0h0h0c0,0-0.1,0-0.1,0c0,0,0,0,0,0
				c0,0-0.1,0-0.1,0c0,0,0,0,0,0c0,0,0,0,0,0L4.8,5.1c0,0,0,0.1,0,0.1v4.2c0,0.4,0.4,0.8,0.8,0.8h7.3c0.4,0,0.8-0.4,0.8-0.8V5.3
				c0,0,0-0.1,0-0.1L9.5,7.8z"/>
		</g>
	</g>
</g>
</svg>
