<?xml version="1.0" encoding="utf-8"?>
<!-- Generator: Adobe Illustrator 20.0.0, SVG Export Plug-In . SVG Version: 6.00 Build 0)  -->
<svg version="1.1" id="Layer_1" xmlns="http://www.w3.org/2000/svg" xmlns:xlink="http://www.w3.org/1999/xlink" x="0px" y="0px"
	 viewBox="0 0 18 18" style="enable-background:new 0 0 18 18;" xml:space="preserve">
<g>
	<g>
		<g>
			<g>
				<path d="M8.9,0.3C4,0.3,0.1,4.2,0.1,9.1s3.9,8.8,8.8,8.8s8.8-3.9,8.8-8.8S13.8,0.3,8.9,0.3z M8.9,16.8c-4.3,0-7.7-3.5-7.7-7.7
					s3.5-7.7,7.7-7.7s7.7,3.5,7.7,7.7S13.2,16.8,8.9,16.8z"/>
			</g>
		</g>
	</g>
	<g>
		<g>
			<g>
				<path d="M8.9,6.9C8.3,6.9,7.8,7.4,7.8,8v5.5c0,0.6,0.5,1.1,1.1,1.1s1.1-0.5,1.1-1.1V8C10,7.4,9.5,6.9,8.9,6.9z M8.9,5.8
					c0.6,0,1.1-0.5,1.1-1.1S9.5,3.6,8.9,3.6S7.8,4.1,7.8,4.7S8.3,5.8,8.9,5.8z"/>
			</g>
		</g>
	</g>
</g>
</svg>
