<svg xmlns="http://www.w3.org/2000/svg" viewBox="0 0 20.17 141.44"><defs><style>.cls-1{fill:none;}.cls-2{fill:#df8130;}</style></defs><title>Asset 1</title><g id="Layer_2" data-name="Layer 2"><g id="Layer_1-2" data-name="Layer 1"><path class="cls-1" d="M1.39,5.89V18.32H18.71V5.89Zm12.33,7.2H6.38V10.4h7.34Z"/><rect class="cls-1" x="7.38" y="11.4" width="5.34" height="0.69"/><rect class="cls-1" x="1.39" y="1" width="17.32" height="3.89"/><path class="cls-2" d="M19.71,5.89V0H.39V19.32H19.71ZM1.39,1H18.71V4.89H1.39Zm0,17.32V5.89H18.71V18.32Z"/><path class="cls-2" d="M6.38,13.09h7.34V10.4H6.38Zm1-1.69h5.34v.69H7.38Z"/><rect class="cls-2" x="2.36" y="25.93" width="15.46" height="1"/><rect class="cls-2" x="2.36" y="28.51" width="7.44" height="1"/><rect class="cls-2" x="2.36" y="31.09" width="15.46" height="1"/><rect class="cls-2" x="2.36" y="33.66" width="7.44" height="1"/><rect class="cls-2" x="2.36" y="36.24" width="15.46" height="1"/><rect class="cls-2" x="2.36" y="38.82" width="7.44" height="1"/><rect class="cls-2" x="2.36" y="51.93" width="15.46" height="1"/><rect class="cls-2" x="5.9" y="54.51" width="7.44" height="1"/><rect class="cls-2" x="2.36" y="57.09" width="15.46" height="1"/><rect class="cls-2" x="5.9" y="59.66" width="7.44" height="1"/><rect class="cls-2" x="2.36" y="62.24" width="15.46" height="1"/><rect class="cls-2" x="5.9" y="64.82" width="7.44" height="1"/><rect class="cls-2" x="2.36" y="76.06" width="15.46" height="1"/><rect class="cls-2" x="10.09" y="78.64" width="7.44" height="1"/><rect class="cls-2" x="2.36" y="81.21" width="15.46" height="1"/><rect class="cls-2" x="10.09" y="83.79" width="7.44" height="1"/><rect class="cls-2" x="2.36" y="86.36" width="15.46" height="1"/><rect class="cls-2" x="10.09" y="88.94" width="7.44" height="1"/><polygon class="cls-2" points="8.43 115.63 8.43 115.54 8.76 115.54 8.76 112.96 7.76 112.96 7.76 114.63 2.82 114.63 2.82 102.75 7.76 102.75 7.76 104.5 8.76 104.5 8.76 101.82 8.43 101.82 8.43 101.75 2.14 101.75 2.14 101.82 1.82 101.82 1.82 115.54 2.14 115.54 2.14 115.63 8.43 115.63"/><polygon class="cls-2" points="7.37 105.63 7.37 108.24 4.33 108.24 4.33 109.24 7.37 109.24 7.37 111.75 9.53 108.69 7.37 105.63"/><polygon class="cls-2" points="18.03 115.63 18.03 115.54 18.36 115.54 18.36 101.82 18.03 101.82 18.03 101.75 11.74 101.75 11.74 101.82 11.42 101.82 11.42 104.5 12.42 104.5 12.42 102.75 17.36 102.75 17.36 114.63 12.42 114.63 12.42 112.96 11.42 112.96 11.42 115.54 11.74 115.54 11.74 115.63 18.03 115.63"/><polygon class="cls-2" points="10.66 108.69 12.81 111.75 12.81 109.24 15.84 109.24 15.84 108.24 12.81 108.24 12.81 105.63 10.66 108.69"/><polygon class="cls-2" points="15.35 140.16 10.03 140.28 10.03 126.72 15.35 126.72 15.35 129.43 16.35 129.43 16.35 126.22 16.3 126.22 16.3 125.72 3 125.72 3 126.72 3.01 126.72 3.01 129.43 4.01 129.43 4.01 126.72 9.03 126.72 9.03 140.3 4.01 140.42 4.01 137.74 3.01 137.74 3.01 140.44 2.99 140.44 3.02 141.44 16.32 141.14 16.31 140.94 16.35 140.94 16.35 137.74 15.35 137.74 15.35 140.16"/><polygon class="cls-2" points="20.17 133.59 18.02 130.53 18.02 133.03 14.99 133.03 14.99 134.03 18.02 134.03 18.02 136.65 20.17 133.59"/><polygon class="cls-2" points="5.19 134.14 5.19 133.14 2.16 133.14 2.16 130.54 0 133.59 2.16 136.64 2.16 134.14 5.19 134.14"/></g></g></svg>