<svg id="Layer_1" data-name="Layer 1" xmlns="http://www.w3.org/2000/svg" viewBox="0 0 20.18 141.44"><defs><style>.cls-1{fill:none;stroke:#cbcccb;stroke-miterlimit:10;}</style></defs><title>table icons</title><rect class="cls-1" x="0.89" y="0.5" width="18.32" height="18.32"/><rect class="cls-1" x="0.89" y="0.5" width="18.32" height="4.89"/><rect class="cls-1" x="6.88" y="10.9" width="6.34" height="1.69"/><line class="cls-1" x1="2.36" y1="26.43" x2="17.82" y2="26.43"/><line class="cls-1" x1="2.36" y1="29.01" x2="9.8" y2="29.01"/><line class="cls-1" x1="2.36" y1="31.59" x2="17.82" y2="31.59"/><line class="cls-1" x1="2.36" y1="34.16" x2="9.8" y2="34.16"/><line class="cls-1" x1="2.36" y1="36.74" x2="17.82" y2="36.74"/><line class="cls-1" x1="2.36" y1="39.32" x2="9.8" y2="39.32"/><line class="cls-1" x1="2.36" y1="52.43" x2="17.82" y2="52.43"/><line class="cls-1" x1="5.9" y1="55.01" x2="13.34" y2="55.01"/><line class="cls-1" x1="2.36" y1="57.59" x2="17.82" y2="57.59"/><line class="cls-1" x1="5.9" y1="60.16" x2="13.34" y2="60.16"/><line class="cls-1" x1="2.36" y1="62.74" x2="17.82" y2="62.74"/><line class="cls-1" x1="5.9" y1="65.32" x2="13.34" y2="65.32"/><line class="cls-1" x1="2.36" y1="76.56" x2="17.82" y2="76.56"/><line class="cls-1" x1="10.09" y1="79.14" x2="17.53" y2="79.14"/><line class="cls-1" x1="2.36" y1="81.71" x2="17.82" y2="81.71"/><line class="cls-1" x1="10.09" y1="84.29" x2="17.53" y2="84.29"/><line class="cls-1" x1="2.36" y1="86.86" x2="17.82" y2="86.86"/><line class="cls-1" x1="10.09" y1="89.44" x2="17.53" y2="89.44"/><line class="cls-1" x1="2.14" y1="102.25" x2="8.43" y2="102.25"/><line class="cls-1" x1="4.33" y1="108.74" x2="7.71" y2="108.74"/><line class="cls-1" x1="2.14" y1="115.13" x2="8.43" y2="115.13"/><line class="cls-1" x1="2.32" y1="101.82" x2="2.32" y2="115.54"/><line class="cls-1" x1="8.26" y1="101.82" x2="8.26" y2="104.5"/><line class="cls-1" x1="8.26" y1="112.96" x2="8.26" y2="115.54"/><polygon class="cls-1" points="8.91 108.69 7.87 110.17 7.87 107.21 8.91 108.69"/><line class="cls-1" x1="18.03" y1="102.25" x2="11.74" y2="102.25"/><line class="cls-1" x1="15.84" y1="108.74" x2="12.47" y2="108.74"/><line class="cls-1" x1="18.03" y1="115.13" x2="11.74" y2="115.13"/><line class="cls-1" x1="17.86" y1="101.82" x2="17.86" y2="115.54"/><line class="cls-1" x1="11.92" y1="101.82" x2="11.92" y2="104.5"/><line class="cls-1" x1="11.92" y1="112.96" x2="11.92" y2="115.54"/><polygon class="cls-1" points="11.27 108.69 12.31 110.17 12.31 107.21 11.27 108.69"/><line class="cls-1" x1="3.51" y1="126.22" x2="3.51" y2="129.43"/><line class="cls-1" x1="16.3" y1="126.22" x2="3" y2="126.22"/><line class="cls-1" x1="14.99" y1="133.53" x2="18.36" y2="133.53"/><line class="cls-1" x1="3.51" y1="140.94" x2="3.51" y2="137.74"/><line class="cls-1" x1="15.85" y1="126.22" x2="15.85" y2="129.43"/><line class="cls-1" x1="15.85" y1="140.94" x2="15.85" y2="137.74"/><line class="cls-1" x1="16.3" y1="140.64" x2="3" y2="140.94"/><polygon class="cls-1" points="19.56 133.59 18.52 132.11 18.52 135.07 19.56 133.59"/><line class="cls-1" x1="9.53" y1="126.1" x2="9.53" y2="140.72"/><line class="cls-1" x1="5.19" y1="133.64" x2="1.81" y2="133.64"/><polygon class="cls-1" points="0.61 133.59 1.66 135.07 1.66 132.11 0.61 133.59"/></svg>